<svg width="46" height="35" viewBox="0 0 46 35" fill="none" xmlns="http://www.w3.org/2000/svg">
<path d="M7.41825 9.02833L6.41825 9.02833L7.41825 9.02833ZM8.12536 0.292995C7.73484 -0.0975312 7.10167 -0.0975306 6.71115 0.292993L0.347185 6.65695C-0.0433392 7.04748 -0.0433386 7.68064 0.347185 8.07117C0.737709 8.46169 1.37087 8.46169 1.7614 8.07117L7.41825 2.41431L13.0751 8.07117C13.4656 8.46169 14.0988 8.46169 14.4893 8.07117C14.8798 7.68064 14.8798 7.04748 14.4893 6.65695L8.12536 0.292995ZM45.1527 30.1416L44.6296 29.2894C43.8972 29.739 43.1559 30.1431 42.4079 30.5033L42.8419 31.4043L43.2758 32.3052C44.0852 31.9154 44.886 31.4787 45.6759 30.9939L45.1527 30.1416ZM37.8998 33.1707L37.6659 32.1984C36.004 32.5982 34.3324 32.8065 32.6757 32.8373L32.6943 33.8371L32.7128 34.8369C34.5124 34.8035 36.3285 34.5772 38.1336 34.143L37.8998 33.1707ZM27.4663 33.3697L27.6612 32.3889C26.0049 32.0598 24.3912 31.5558 22.848 30.8921L22.4529 31.8108L22.0578 32.7294C23.7281 33.4478 25.4759 33.9938 27.2715 34.3505L27.4663 33.3697ZM17.8712 29.2472L18.4474 28.4299C17.0745 27.4619 15.8008 26.3504 14.6538 25.1109L13.9198 25.7901L13.1859 26.4693C14.4292 27.8129 15.8089 29.0168 17.295 30.0645L17.8712 29.2472ZM10.7865 21.5792L11.6483 21.072C10.8078 19.6439 10.1108 18.1103 9.5821 16.4849L8.63115 16.7942L7.6802 17.1036C8.25452 18.8691 9.01175 20.5352 9.9247 22.0864L10.7865 21.5792ZM7.55109 11.6583L8.54593 11.5568C8.46168 10.7309 8.41825 9.88765 8.41825 9.02833L7.41825 9.02833L6.41825 9.02833C6.41825 9.95509 6.46509 10.8661 6.55625 11.7598L7.55109 11.6583ZM7.41825 9.02833L8.41825 9.02833L8.41825 7.02127L7.41825 7.02127L6.41825 7.02127L6.41825 9.02833L7.41825 9.02833ZM7.41825 3.00716L8.41825 3.00716L8.41825 1.0001L7.41825 1.0001L6.41825 1.0001L6.41825 3.00716L7.41825 3.00716ZM7.41825 9.02833L6.41825 9.02833L7.41825 9.02833ZM8.12536 0.292995C7.73484 -0.0975312 7.10167 -0.0975306 6.71115 0.292993L0.347185 6.65695C-0.0433392 7.04748 -0.0433386 7.68064 0.347185 8.07117C0.737709 8.46169 1.37087 8.46169 1.7614 8.07117L7.41825 2.41431L13.0751 8.07117C13.4656 8.46169 14.0988 8.46169 14.4893 8.07117C14.8798 7.68064 14.8798 7.04748 14.4893 6.65695L8.12536 0.292995ZM45.1527 30.1416L44.6296 29.2894C43.8972 29.739 43.1559 30.1431 42.4079 30.5033L42.8419 31.4043L43.2758 32.3052C44.0852 31.9154 44.886 31.4787 45.6759 30.9939L45.1527 30.1416ZM37.8998 33.1707L37.6659 32.1984C36.004 32.5982 34.3324 32.8065 32.6757 32.8373L32.6943 33.8371L32.7128 34.8369C34.5124 34.8035 36.3285 34.5772 38.1336 34.143L37.8998 33.1707ZM27.4663 33.3697L27.6612 32.3889C26.0049 32.0598 24.3912 31.5558 22.848 30.8921L22.4529 31.8108L22.0578 32.7294C23.7281 33.4478 25.4759 33.9938 27.2715 34.3505L27.4663 33.3697ZM17.8712 29.2472L18.4474 28.4299C17.0745 27.4619 15.8008 26.3504 14.6538 25.1109L13.9198 25.7901L13.1859 26.4693C14.4292 27.8129 15.8089 29.0168 17.295 30.0645L17.8712 29.2472ZM10.7865 21.5792L11.6483 21.072C10.8078 19.6439 10.1108 18.1103 9.5821 16.4849L8.63115 16.7942L7.6802 17.1036C8.25452 18.8691 9.01175 20.5352 9.9247 22.0864L10.7865 21.5792ZM7.55109 11.6583L8.54593 11.5568C8.46168 10.7309 8.41825 9.88765 8.41825 9.02833L7.41825 9.02833L6.41825 9.02833C6.41825 9.95509 6.46509 10.8661 6.55625 11.7598L7.55109 11.6583ZM7.41825 9.02833L8.41825 9.02833L8.41825 7.02127L7.41825 7.02127L6.41825 7.02127L6.41825 9.02833L7.41825 9.02833ZM7.41825 3.00716L8.41825 3.00716L8.41825 1.0001L7.41825 1.0001L6.41825 1.0001L6.41825 3.00716L7.41825 3.00716Z" fill="black"/>
</svg>
